<svg aria-hidden="true" style="position: absolute; width: 0; height: 0; overflow: hidden;" version="1.1" xmlns="http://www.w3.org/2000/svg" xmlns:xlink="http://www.w3.org/1999/xlink">
<defs>
<symbol id="icon-menu" viewBox="0 0 24 24">
<path d="M3 13h18c0.552 0 1-0.448 1-1s-0.448-1-1-1h-18c-0.552 0-1 0.448-1 1s0.448 1 1 1zM3 7h18c0.552 0 1-0.448 1-1s-0.448-1-1-1h-18c-0.552 0-1 0.448-1 1s0.448 1 1 1zM3 19h18c0.552 0 1-0.448 1-1s-0.448-1-1-1h-18c-0.552 0-1 0.448-1 1s0.448 1 1 1z"></path>
</symbol>
<symbol id="icon-twitter" viewBox="0 0 32 32">
<path fill="#1da1f2" style="fill: var(--color1, #1da1f2)" d="M31.939 6.092c-1.18 0.519-2.44 0.872-3.767 1.033 1.352-0.815 2.392-2.099 2.884-3.631-1.268 0.74-2.673 1.279-4.169 1.579-1.195-1.279-2.897-2.079-4.788-2.079-3.623 0-6.56 2.937-6.56 6.556 0 0.52 0.060 1.020 0.169 1.499-5.453-0.257-10.287-2.876-13.521-6.835-0.569 0.963-0.888 2.081-0.888 3.3 0 2.28 1.16 4.284 2.917 5.461-1.076-0.035-2.088-0.331-2.971-0.821v0.081c0 3.18 2.257 5.832 5.261 6.436-0.551 0.148-1.132 0.228-1.728 0.228-0.419 0-0.82-0.040-1.221-0.115 0.841 2.604 3.26 4.503 6.139 4.556-2.24 1.759-5.079 2.807-8.136 2.807-0.52 0-1.039-0.031-1.56-0.089 2.919 1.859 6.357 2.945 10.076 2.945 12.072 0 18.665-9.995 18.665-18.648 0-0.279 0-0.56-0.020-0.84 1.281-0.919 2.4-2.080 3.28-3.397z"></path>
</symbol>
<symbol id="icon-instagram" viewBox="0 0 32 32">
<path fill="#e4405f" style="fill: var(--color2, #e4405f)" d="M16 0c-4.347 0-4.889 0.020-6.596 0.096-1.704 0.080-2.864 0.348-3.884 0.744-1.052 0.408-1.945 0.956-2.835 1.845s-1.439 1.781-1.845 2.835c-0.396 1.020-0.665 2.18-0.744 3.884-0.080 1.707-0.096 2.249-0.096 6.596s0.020 4.889 0.096 6.596c0.080 1.703 0.348 2.864 0.744 3.884 0.408 1.051 0.956 1.945 1.845 2.835 0.889 0.888 1.781 1.439 2.835 1.845 1.021 0.395 2.181 0.665 3.884 0.744 1.707 0.080 2.249 0.096 6.596 0.096s4.889-0.020 6.596-0.096c1.703-0.080 2.864-0.349 3.884-0.744 1.051-0.408 1.945-0.957 2.835-1.845 0.888-0.889 1.439-1.78 1.845-2.835 0.395-1.020 0.665-2.181 0.744-3.884 0.080-1.707 0.096-2.249 0.096-6.596s-0.020-4.889-0.096-6.596c-0.080-1.703-0.349-2.865-0.744-3.884-0.408-1.052-0.957-1.945-1.845-2.835-0.889-0.889-1.78-1.439-2.835-1.845-1.020-0.396-2.181-0.665-3.884-0.744-1.707-0.080-2.249-0.096-6.596-0.096zM16 2.88c4.271 0 4.78 0.021 6.467 0.095 1.56 0.073 2.407 0.332 2.969 0.553 0.749 0.289 1.28 0.636 1.843 1.195 0.559 0.56 0.905 1.092 1.195 1.841 0.219 0.563 0.48 1.409 0.551 2.969 0.076 1.688 0.093 2.195 0.093 6.467s-0.020 4.78-0.099 6.467c-0.081 1.56-0.341 2.407-0.561 2.969-0.299 0.749-0.639 1.28-1.199 1.843-0.559 0.559-1.099 0.905-1.84 1.195-0.56 0.219-1.42 0.48-2.98 0.551-1.699 0.076-2.199 0.093-6.479 0.093-4.281 0-4.781-0.020-6.479-0.099-1.561-0.081-2.421-0.341-2.981-0.561-0.759-0.299-1.28-0.639-1.839-1.199-0.561-0.559-0.92-1.099-1.2-1.84-0.22-0.56-0.479-1.42-0.56-2.98-0.060-1.68-0.081-2.199-0.081-6.459 0-4.261 0.021-4.781 0.081-6.481 0.081-1.56 0.34-2.419 0.56-2.979 0.28-0.76 0.639-1.28 1.2-1.841 0.559-0.559 1.080-0.919 1.839-1.197 0.56-0.221 1.401-0.481 2.961-0.561 1.7-0.060 2.2-0.080 6.479-0.080zM16 7.784c-4.54 0-8.216 3.68-8.216 8.216 0 4.54 3.68 8.216 8.216 8.216 4.54 0 8.216-3.68 8.216-8.216 0-4.54-3.68-8.216-8.216-8.216zM16 21.333c-2.947 0-5.333-2.387-5.333-5.333s2.387-5.333 5.333-5.333 5.333 2.387 5.333 5.333-2.387 5.333-5.333 5.333zM26.461 7.46c0 1.060-0.861 1.92-1.92 1.92-1.060 0-1.92-0.861-1.92-1.92s0.861-1.919 1.92-1.919c1.057-0.001 1.92 0.86 1.92 1.919z"></path>
</symbol>
<symbol id="icon-facebook" viewBox="0 0 32 32">
<path fill="#1877f2" style="fill: var(--color3, #1877f2)" d="M31.997 15.999c0-8.836-7.163-15.999-15.999-15.999s-15.999 7.163-15.999 15.999c0 7.985 5.851 14.604 13.499 15.804v-11.18h-4.062v-4.625h4.062v-3.525c0-4.010 2.389-6.225 6.043-6.225 1.75 0 3.581 0.313 3.581 0.313v3.937h-2.017c-1.987 0-2.607 1.233-2.607 2.498v3.001h4.437l-0.709 4.625h-3.728v11.18c7.649-1.2 13.499-7.819 13.499-15.804z"></path>
</symbol>
<symbol id="icon-phone" viewBox="0 0 32 32">
<path d="M22 20c-2 2-2 4-4 4s-4-2-6-4-4-4-4-6 2-2 4-4-4-8-6-8-6 6-6 6c0 4 4.109 12.109 8 16s12 8 16 8c0 0 6-4 6-6s-6-8-8-6z"></path>
</symbol>
<symbol id="icon-envelop" viewBox="0 0 32 32">
<path d="M29 4h-26c-1.65 0-3 1.35-3 3v20c0 1.65 1.35 3 3 3h26c1.65 0 3-1.35 3-3v-20c0-1.65-1.35-3-3-3zM12.461 17.199l-8.461 6.59v-15.676l8.461 9.086zM5.512 8h20.976l-10.488 7.875-10.488-7.875zM12.79 17.553l3.21 3.447 3.21-3.447 6.58 8.447h-19.579l6.58-8.447zM19.539 17.199l8.461-9.086v15.676l-8.461-6.59z"></path>
</symbol>
<symbol id="icon-location" viewBox="0 0 32 32">
<path d="M16 0c-5.523 0-10 4.477-10 10 0 10 10 22 10 22s10-12 10-22c0-5.523-4.477-10-10-10zM16 16c-3.314 0-6-2.686-6-6s2.686-6 6-6 6 2.686 6 6-2.686 6-6 6z"></path>
</symbol>

<symbol clip-path="url(#clip0_279_353)" viewBox="0 0 56 56" id="icon-auction">
<path d="M28.8519 0.937256V27.2769L26.2526 31.6067H55.2048V0.937256H28.8519Z" fill="#F2BF7E"/>
<path d="M41.1291 8.89985H35.0035L38.5039 5.39941H44.6295L41.1291 8.89985Z" fill="#C5FFCA"/>
<path d="M41.1295 8.8999H35.004V16.7751H41.1295V8.8999Z" fill="#B3B3B3"/>
<path d="M49.0049 16.7756H41.1291V8.89985L44.6295 5.39941H45.5045L49.0049 8.89985V16.7756Z" fill="#AA603B"/>
<path d="M46.379 13.2753H43.7539V16.7757H46.379V13.2753Z" fill="white"/>
<path d="M49.8797 23.7769H41.1287V27.2773H49.8797V23.7769Z" fill="#B3B3B3"/>
<path d="M21.0143 42.6404H7.83775V45.2655H21.0143V42.6404Z" fill="#C5FFCA"/>
<path d="M21.0016 30.3899H7.83771V33.015H21.0016V30.3899Z" fill="#C5FFCA"/>
<path d="M19.2513 33.0151H9.62563V42.6408H19.2513V33.0151Z" fill="#F2BF7E"/>
<path d="M21.8773 36.5159H53.818C54.5429 36.5159 55.1306 37.1035 55.1306 37.8285C55.1306 38.5534 54.5429 39.1411 53.818 39.1411H21.8773" fill="#AA603B"/>
<path d="M21.0018 27.7649H7.87524V30.39H21.0018V27.7649Z" fill="#AA603B"/>
<path d="M21.0017 45.2668H7.87518V47.892H21.0017V45.2668Z" fill="#AA603B"/>
<path d="M24.5025 51.3916H5.25012V54.892H24.5025V51.3916Z" fill="#C5FFCA"/>
<path d="M25.3543 55.7442H4.39862V50.54H25.3543V55.7442ZM6.10246 54.0404H23.6505V52.244H6.10246V54.0404Z" fill="#AD7F62"/>
<path d="M21.8541 48.7437H7.02386V44.4146H21.8541V48.7437ZM8.72771 47.0399H20.1503V46.1184H8.72771V47.0399Z" fill="#AD7F62"/>
<path d="M21.8541 31.242H7.02386V26.9128H21.8541V31.242ZM8.72771 29.5382H20.1503V28.6167H8.72771V29.5382Z" fill="#AD7F62"/>
<path d="M21.0142 33.8782V32.1743H7.83771V33.8782H8.7464V41.8295H7.83771V43.5333H21.0142V41.8295H19.9919V33.8782H21.0142ZM10.4503 41.8295V33.8782H18.2881V41.8295H10.4503Z" fill="#AD7F62"/>
<path d="M53.8179 35.6636H22.718V34.6733H21.0142V40.9208H22.718V39.9928H53.8179C55.0114 39.9928 55.9825 39.0218 55.9825 37.8283C55.9825 36.6348 55.0114 35.6636 53.8179 35.6636ZM53.8179 38.2889H22.718V37.3675H53.8179C54.0719 37.3675 54.2786 37.5741 54.2786 37.8283C54.2786 38.0823 54.0719 38.2889 53.8179 38.2889Z" fill="#AD7F62"/>
<path d="M23.9 47.2896L25.1048 48.4944L27.2927 46.3065L26.0879 45.1017L23.9 47.2896Z" fill="#AD7F62"/>
<path d="M29.7605 48.7588H27.148V50.4626H29.7605V48.7588Z" fill="#AD7F62"/>
<path d="M2.46052 46.306L4.64844 48.4939L5.85323 47.2891L3.6653 45.1012L2.46052 46.306Z" fill="#AD7F62"/>
<path d="M2.61253 48.7588H0V50.4626H2.61253V48.7588Z" fill="#AD7F62"/>
<path d="M56 32.5151H24.741L28.0568 27.0388V0.255493H56V32.5151ZM27.7644 30.8113H54.2962V1.95934H29.7607V27.5146L27.7644 30.8113Z" fill="#AD7F62"/>
<path d="M49.7525 15.9309V8.55282L45.8632 4.5719H44.6409H44.283H38.15L34.1906 8.54801V15.9309H33.2819V17.6348H50.6613V15.9309H49.7525ZM44.976 6.27574H45.1458L48.0488 9.24691V15.9309H47.1401V12.4096H42.8236V15.9309H41.9149V9.25927L44.976 6.27574ZM45.4361 15.9309H44.5274V14.1134H45.4361V15.9309ZM38.8579 6.27574H42.5348L40.67 8.09323H37.0482L38.8579 6.27574ZM35.8945 9.79707H40.211V15.9309H35.8945V9.79707Z" fill="#AD7F62"/>
<path d="M46.3447 9.00195H43.7322V10.7058H46.3447V9.00195Z" fill="white"/>
<path d="M39.4157 11.6147H36.6896V13.3186H39.4157V11.6147Z" fill="white"/>
<path d="M50.6613 19.4524H33.2819V21.1562H50.6613V19.4524Z" fill="#AD7F62"/>
<path d="M38.5071 22.8601H33.2819V24.564H38.5071V22.8601Z" fill="white"/>
<path d="M35.8945 26.3813H33.2819V28.0852H35.8945V26.3813Z" fill="#AD7F62"/>
<path d="M50.7319 28.1287H40.2772V22.9246H50.7319V28.1287ZM41.9811 26.4249H49.0281V24.6285H41.9811V26.4249Z" fill="#AD7F62"/>
</symbol>

<symbol viewBox="0 0 56 56" fill="none" xmlns="http://www.w3.org/2000/svg" id="icon-jury">
<path d="M52.4999 30.3463H3.5001C2.85575 30.3463 2.33368 30.8693 2.33368 31.5136V52.5135C2.33368 53.1579 2.85575 53.6808 3.5001 53.6808H52.4999C53.1442 53.6808 53.6654 53.1579 53.6654 52.5135V31.5136C53.6654 30.8693 53.1442 30.3463 52.4999 30.3463Z" fill="#AD7F62"/>
<path d="M17.5001 31.5136V53.6808H19.8337V31.5136C19.8337 30.8693 19.3108 30.3463 18.6665 30.3463C18.0222 30.3463 17.5001 30.8693 17.5001 31.5136Z" fill="#AD7F62"/>
<path d="M36.1655 31.5136V53.6808H38.5001V31.5136C38.5001 30.8693 37.9772 30.3463 37.3346 30.3463C36.6886 30.3463 36.1655 30.8693 36.1655 31.5136Z" fill="#AD7F62"/>
<path d="M24.9589 17.6947C24.0814 16.9291 23.8754 14.792 23.6762 12.7258C23.4626 10.505 23.2208 7.98852 22.1296 5.99334C20.812 3.58197 18.4759 2.35572 15.1801 2.34631C11.8912 2.35572 9.55494 3.58197 8.23736 5.99334C7.14608 7.98863 6.90425 10.5051 6.69074 12.725C6.49167 14.7919 6.28571 16.9291 5.40805 17.6947L4.44672 18.5321L5.36616 19.4148C5.59006 19.6302 7.76385 21.5125 15.1834 21.5125C22.6029 21.5125 24.7768 19.6302 25.0006 19.4148L25.92 18.5321L24.9589 17.6947Z" fill="#E2A437"/>
<path d="M23.801 21.873L23.7156 21.8474C22.468 21.5005 22.0468 21.1665 21.4914 20.9477C19.5218 20.1692 19.0091 19.6079 18.8784 19.343C18.8733 19.3336 18.8699 19.3233 18.8656 19.3139L18.8494 16.9409L15.1836 16.8862L11.5177 16.9409L11.5016 19.3139C11.4973 19.3233 11.4939 19.3336 11.4888 19.343C11.358 19.6079 10.8454 20.1692 8.8758 20.9477C8.32037 21.1665 7.89915 21.5005 6.65158 21.8474L6.56615 21.873C5.43047 22.2627 4.66656 23.3539 4.66656 24.587V28.0135H15.1836H25.7006V24.587C25.7006 23.3539 24.9367 22.2628 23.801 21.873Z" fill="#AD7F62"/>
<path d="M21.6648 12.3276C21.6648 16.6958 17.6504 20.7153 15.1836 20.7153C12.7168 20.7153 8.70233 16.6958 8.70233 12.3276C8.70233 7.96026 11.6042 5.07812 15.1836 5.07812C18.763 5.07812 21.6648 7.96037 21.6648 12.3276Z" fill="#EAC6BB"/>
<path d="M16.0748 7.53142C16.0748 7.53142 19.3868 10.6126 23.5216 11.216C23.314 9.41635 22.979 7.54684 22.1296 5.99333C20.8718 3.69134 18.6844 2.46936 15.621 2.35571L16.0748 7.53142Z" fill="#F6BB42"/>
<path d="M50.5194 21.7083L50.4288 21.6818C49.0992 21.3256 48.6514 20.9829 48.0601 20.7581C45.9614 19.9584 45.4145 19.3825 45.2762 19.1107C45.271 19.1004 45.2676 19.0901 45.2625 19.0799L45.2454 16.6438L40.2706 16.5874L35.2975 16.6438L35.2804 19.0799C35.2737 19.0902 35.2702 19.1005 35.2668 19.1107C35.1267 19.3824 34.5798 19.9584 32.483 20.7581C31.8917 20.9829 31.4421 21.3256 30.1142 21.6818L30.0237 21.7083C28.8135 22.1082 28.0001 23.2292 28.0001 24.4947V28.0136H40.2705H52.5411V24.4947C52.541 23.2292 51.7276 22.1082 50.5194 21.7083Z" fill="#AD7F62"/>
<path d="M47.1747 11.9295C47.1747 16.4139 42.8989 20.542 40.2705 20.542C37.6439 20.542 33.368 16.4139 33.368 11.9295C33.368 7.44437 36.4596 4.48523 40.2705 4.48523C44.0833 4.48523 47.1747 7.44426 47.1747 11.9295Z" fill="#EAC6BB"/>
<path d="M43.8338 4.28949C43.8338 4.28949 43.6988 3.67937 45.1292 2.82053C45.7341 2.45651 36.0597 0.732153 33.6295 6.84612C32.7169 9.14384 33.3919 12.5242 33.3919 12.5242L35.4956 8.75336C35.4956 8.75336 37.7874 9.2891 40.2704 9.2891C42.7553 9.2891 45.1308 8.75336 45.1308 8.75336L47.1748 11.9397C47.1748 11.9397 47.9592 8.88067 47.0791 6.85301C46.2006 4.82599 43.8338 4.28949 43.8338 4.28949Z" fill="#434A54"/>
<path d="M54.8345 25.6799H1.16642C0.522176 25.6799 0 26.202 0 26.8462V31.5136C0 32.1578 0.522066 32.6807 1.16642 32.6807H54.8345C55.4771 32.6807 56 32.1578 56 31.5136V26.8462C56 26.202 55.4771 25.6799 54.8345 25.6799Z" fill="#A85D5D"/>
<path d="M20.3541 3.88364C19.0408 2.86849 17.3121 2.35233 15.1802 2.34631C11.8912 2.35572 9.555 3.58197 8.23742 5.99334C7.14615 7.98863 6.90431 10.5051 6.6908 12.725C6.67024 12.9352 6.64979 13.1454 6.62933 13.3548C13.4899 12.8335 18.9169 5.89676 20.3541 3.88364Z" fill="#AD7F62"/>
</symbol>

<symbol viewBox="0 0 56 56" fill="none" xmlns="http://www.w3.org/2000/svg" id="icon-prison">
<path d="M50.8769 0H5.12302C4.6176 0 4.20799 0.409719 4.20799 0.915031C4.20799 1.42034 4.61771 1.83006 5.12302 1.83006H50.8769C51.3824 1.83006 51.7919 1.42034 51.7919 0.915031C51.7919 0.409719 51.3824 0 50.8769 0Z" fill="#AD7F62"/>
<path d="M50.8769 6.10596H33.9951C34.1918 6.68324 34.3065 7.2976 34.3254 7.93613H50.8771C51.3826 7.93613 51.7921 7.52641 51.7921 7.0211C51.7921 6.51579 51.3824 6.10596 50.8769 6.10596Z" fill="#AD7F62"/>
<path d="M5.12302 6.10594C4.61771 6.10594 4.20799 6.51566 4.20799 7.02098C4.20799 7.52629 4.61771 7.93601 5.12302 7.93601H21.7893C21.8082 7.29748 21.9227 6.68312 22.1196 6.10583H5.12302V6.10594Z" fill="#AD7F62"/>
<path d="M5.12302 12.212C4.61771 12.212 4.20799 12.6217 4.20799 13.1271C4.20799 13.6324 4.61771 14.0421 5.12302 14.0421H16.9762C17.4279 13.3309 17.9953 12.7143 18.6479 12.2119H5.12302V12.212Z" fill="#AD7F62"/>
<path d="M50.8769 12.212H37.352C38.0046 12.7144 38.5718 13.3309 39.0237 14.0422H50.8769C51.3824 14.0422 51.7919 13.6325 51.7919 13.1272C51.792 12.6218 51.3824 12.212 50.8769 12.212Z" fill="#AD7F62"/>
<path d="M5.12302 18.3181C4.61771 18.3181 4.20799 18.7278 4.20799 19.2331C4.20799 19.7384 4.61771 20.1482 5.12302 20.1482H14.3677L15.1116 18.318H5.12302V18.3181Z" fill="#AD7F62"/>
<path d="M50.8769 18.3181H40.8883L41.6322 20.1483H50.8769C51.3824 20.1483 51.7919 19.7386 51.7919 19.2333C51.7919 18.7279 51.3824 18.3181 50.8769 18.3181Z" fill="#AD7F62"/>
<path d="M50.8769 24.4241H43.1328C43.0463 25.0805 42.8104 25.7068 42.4481 26.2542H50.8771C51.3826 26.2542 51.7921 25.8445 51.7921 25.3392C51.7921 24.8339 51.3824 24.4241 50.8769 24.4241Z" fill="#AD7F62"/>
<path d="M12.8672 24.4241H5.12302C4.61771 24.4241 4.20799 24.8338 4.20799 25.3391C4.20799 25.8444 4.61771 26.2541 5.12302 26.2541H13.552C13.1898 25.7067 12.9537 25.0804 12.8672 24.4241Z" fill="#AD7F62"/>
<path d="M5.12302 30.5301C4.61771 30.5301 4.20799 30.9399 4.20799 31.4452C4.20799 31.9505 4.61771 32.3602 5.12302 32.3602H20.5051V30.53H5.12302V30.5301Z" fill="#AD7F62"/>
<path d="M50.8769 30.5302H35.5046V32.3603H50.8769C51.3824 32.3603 51.7919 31.9506 51.7919 31.4453C51.7919 30.94 51.3824 30.5302 50.8769 30.5302Z" fill="#AD7F62"/>
<path d="M5.12302 42.7422C4.61771 42.7422 4.20799 43.1519 4.20799 43.6572C4.20799 44.1625 4.61771 44.5722 5.12302 44.5722H20.5061V42.7421H5.12302V42.7422Z" fill="#AD7F62"/>
<path d="M50.8769 42.7422H35.551V44.5724H50.8769C51.3824 44.5724 51.7919 44.1626 51.7919 43.6573C51.7919 43.152 51.3824 42.7422 50.8769 42.7422Z" fill="#AD7F62"/>
<path d="M5.12302 36.6362C4.61771 36.6362 4.20799 37.0459 4.20799 37.5513C4.20799 38.0566 4.61771 38.4663 5.12302 38.4663H20.5061V36.6362H5.12302Z" fill="#AD7F62"/>
<path d="M50.8769 36.6362H35.551V38.4664H50.8769C51.3824 38.4664 51.7919 38.0567 51.7919 37.5514C51.7919 37.0461 51.3824 36.6362 50.8769 36.6362Z" fill="#AD7F62"/>
<path d="M33.6479 30.2412L32.5539 30.6196C30.9141 31.1869 29.1488 30.716 27.9999 29.51C26.8583 30.7083 25.0958 31.1902 23.4459 30.6196L22.3617 30.2446L22.3627 53.443C22.3627 54.855 23.5075 55.9999 24.9196 55.9999C26.3316 55.9999 27.4764 54.855 27.4764 53.443C27.4764 52.24 27.4764 33.5316 27.4764 33.0056H28.5803C28.5803 33.5051 28.5803 52.9416 28.5803 53.443C28.5803 54.855 29.7251 55.9999 31.1373 55.9999C32.5462 55.9999 33.6943 54.8583 33.6943 53.443C33.6943 31.5313 33.6479 30.2414 33.6479 30.2412Z" fill="#AD7F62"/>
<path d="M40.811 23.0591L37.901 15.8997C37.0829 13.887 35.1506 12.5863 32.9777 12.5863H32.4607C31.3272 13.705 29.7717 14.3971 28.0572 14.3971C26.4114 14.3971 24.836 13.7533 23.6538 12.5863H23.0222C20.8282 12.5863 18.9076 13.9099 18.0989 15.8997C17.5492 17.2519 15.7298 21.7285 15.1889 23.0591C14.718 24.2177 15.3475 25.4881 16.4661 25.8749C17.3647 26.1858 22.8953 28.0994 24.1658 28.539C25.2787 28.9241 26.4915 28.3334 26.8761 27.2221C27.2609 26.11 26.6713 24.8966 25.5592 24.5118L19.9826 22.5823C21.0222 20.0242 21.523 18.7303 21.8102 18.0359C21.8623 17.9095 21.9968 17.8376 22.131 17.8644C22.2651 17.8911 22.3616 18.0089 22.3616 18.1456C22.3616 19.1631 22.3616 20.5893 22.3616 21.0757L24.1625 21.6988V18.859C24.1625 18.3576 24.5689 17.9513 25.0702 17.9513H30.9294C31.4308 17.9513 31.8371 18.3577 31.8371 18.859V21.6988L33.6477 21.0723V18.0044C33.6477 17.9038 33.718 17.8167 33.8165 17.7955C33.9149 17.7743 34.0148 17.8248 34.0562 17.9166C34.385 18.6446 34.9728 20.0128 36.0173 22.5823L30.4405 24.5118C29.3273 24.897 28.7401 26.1139 29.1235 27.2221C29.1266 27.231 29.1306 27.2394 29.1338 27.2482C29.5292 28.3446 30.732 28.9204 31.834 28.539L39.5336 25.8749C40.6794 25.4787 41.2732 24.1961 40.811 23.0591Z" fill="#AD7F62"/>
<path d="M28.0575 12.5403C30.4962 12.5403 32.4731 10.5633 32.4731 8.12468C32.4731 5.68603 30.4962 3.70911 28.0575 3.70911C25.6189 3.70911 23.6419 5.68603 23.6419 8.12468C23.6419 10.5633 25.6189 12.5403 28.0575 12.5403Z" fill="#AD7F62"/>
</symbol>

<symbol viewBox="0 0 56 56" fill="none" xmlns="http://www.w3.org/2000/svg" id="icon-witness">
<path d="M32.3706 46.8081V52.0581C32.3706 52.5481 31.9769 52.9331 31.4956 52.9331H1.74562C1.26437 52.9331 0.870621 52.5481 0.870621 52.0581V46.8081C0.870621 43.4219 3.60937 40.6831 6.99562 40.6831H11.3706L13.9956 42.4331L16.6206 41.5581L19.2456 42.4331L21.8706 40.6831H26.2456C29.6319 40.6831 32.3706 43.4219 32.3706 46.8081Z" fill="#E6E9ED"/>
<path d="M26.2456 40.6831H23.618C27.0042 40.6831 29.743 43.4219 29.743 46.8081V52.0581C29.743 52.5481 29.3492 52.9331 28.868 52.9331H31.4956C31.9769 52.9331 32.3706 52.5481 32.3706 52.0581V46.8081C32.3706 43.4219 29.6319 40.6831 26.2456 40.6831Z" fill="#CCD1D9"/>
<path d="M21.8706 36.7798V40.6832L19.2456 42.4332L16.6206 41.5582L13.9956 42.4332L11.3706 40.6832V36.7798C12.9456 37.5944 14.7306 38.0582 16.6206 38.0582C18.5106 38.0582 20.2956 37.5944 21.8706 36.7798Z" fill="#F5F7FA"/>
<path d="M7.87062 20.5581L5.24562 23.1831V18.8081C5.24562 13.006 9.94437 8.30811 15.7456 8.30811H22.7456V11.8081C25.6497 11.8081 27.9956 14.161 27.9956 17.0581V23.1831L25.3706 20.5581C25.3706 20.5581 21.3719 22.3081 16.6206 22.3081C11.8685 22.3081 7.87062 20.5581 7.87062 20.5581Z" fill="#965353"/>
<path d="M22.7456 14.4331C24.1929 14.4331 25.3706 15.6109 25.3706 17.0581V20.5581L27.9956 23.1831V17.0581C27.9956 14.161 25.6497 11.8081 22.7456 11.8081V8.30811H20.1206V11.8081C20.1206 13.258 21.2957 14.4331 22.7456 14.4331Z" fill="#AD7F62"/>
<path d="M27.9956 26.6831C27.9956 31.0756 25.5106 34.881 21.8706 36.7797C20.2956 37.5944 18.5106 38.0581 16.6206 38.0581C14.7306 38.0581 12.9456 37.5944 11.3706 36.7797C7.73062 34.881 5.24562 31.0747 5.24562 26.6831V23.1831L7.87062 20.5581C7.87062 20.5581 11.8685 22.3081 16.6206 22.3081C21.3719 22.3081 25.3706 20.5581 25.3706 20.5581L27.9956 23.1831V26.6831Z" fill="#EAC6BB"/>
<path d="M25.3706 20.5581L25.368 20.559V26.6831C25.368 31.0756 22.883 34.881 19.243 36.7797C18.039 37.4027 16.7099 37.8157 15.3064 37.9776C15.7386 38.0284 16.1761 38.0581 16.6206 38.0581C18.5106 38.0581 20.2956 37.5944 21.8706 36.7797C25.5106 34.881 27.9956 31.0747 27.9956 26.6831V23.1831L25.3706 20.5581Z" fill="#D3B1A9"/>
<path d="M44.6294 10.0485C46.0819 10.0485 47.2544 11.221 47.2544 12.6735C47.2544 14.1172 46.0819 15.2985 44.6294 15.2985C43.1856 15.2985 42.0044 14.1172 42.0044 12.6735C42.0044 11.221 43.1848 10.0485 44.6294 10.0485Z" fill="#AD7F62"/>
<path d="M44.6294 15.2985C46.0819 15.2985 47.2544 14.1172 47.2544 12.6735C47.2544 11.221 46.0819 10.0485 44.6294 10.0485C43.1856 10.0485 42.0044 11.221 42.0044 12.6735C42.0044 14.1181 43.1847 15.2985 44.6294 15.2985ZM44.6381 8.30811C47.5956 8.30811 50.1769 10.0669 51.6381 12.6831C50.1769 15.3081 47.5956 17.0581 44.6381 17.0581C41.6719 17.0581 39.0906 15.3081 37.6381 12.6831C39.0906 10.0669 41.6719 8.30811 44.6381 8.30811Z" fill="#F5F7FA"/>
<path d="M55.1294 3.05811V22.3081H41.1294L36.7544 24.9331V22.3081H34.1294V3.05811H55.1294ZM51.6381 12.6831C50.1769 10.0669 47.5956 8.30811 44.6381 8.30811C41.6719 8.30811 39.0906 10.0669 37.6381 12.6831C39.0906 15.3081 41.6719 17.0581 44.6381 17.0581C47.5956 17.0581 50.1769 15.3081 51.6381 12.6831Z" fill="#AD7F62"/>
<path d="M54.2631 43.3256C54.2631 48.1643 50.344 52.0756 45.5131 52.0756V52.0668C45.0231 52.0668 44.6381 52.4606 44.6381 52.9418C44.6381 52.4606 44.2444 52.0581 43.7544 52.0581V52.0756C38.9156 52.0668 35.0131 48.1643 35.0131 43.3256V31.0843C35.0219 32.5281 36.1856 33.7006 37.6381 33.7006H39.3881C42.2669 33.7006 44.5944 31.3906 44.6381 28.5381C44.6819 31.3915 47.0094 33.7006 49.8794 33.7006H51.6381C53.0906 33.7006 54.2631 32.5193 54.2631 31.0756V43.3256Z" fill="#AD7F62"/>
<path d="M51.6381 33.7006H49.8794C47.0094 33.7006 44.6819 31.3906 44.6381 28.5381C44.6373 28.5827 44.6311 28.6256 44.6294 28.6685V52.8998C44.6303 52.9147 44.6381 52.927 44.6381 52.9418C44.6381 52.4606 45.0231 52.0668 45.5131 52.0668V52.0756C50.344 52.0756 54.2631 48.1643 54.2631 43.3256V31.0756C54.2631 32.5193 53.0906 33.7006 51.6381 33.7006Z" fill="#AD7F62"/>
<path d="M44.6364 17.934C41.4487 17.934 38.5464 16.1297 36.8707 13.1084C36.7246 12.8441 36.7246 12.5239 36.8707 12.2596C38.5455 9.23736 41.4479 7.43311 44.6364 7.43311C47.824 7.43311 50.7264 9.23736 52.402 12.2587C52.5481 12.523 52.5481 12.8441 52.4011 13.1084C50.7255 16.1306 47.8222 17.934 44.6364 17.934ZM38.6522 12.684C40.0391 14.8855 42.2441 16.184 44.6364 16.184C47.0269 16.184 49.2327 14.8855 50.6205 12.684C49.2336 10.4825 47.0286 9.18398 44.6364 9.18398C42.2432 9.18398 40.0382 10.4825 38.6522 12.684Z" fill="#AD7F62"/>
<path d="M44.6355 16.1699C42.7052 16.1699 41.1355 14.6002 41.1355 12.6699C41.1355 10.7397 42.7052 9.16992 44.6355 9.16992C46.5657 9.16992 48.1355 10.7397 48.1355 12.6699C48.1355 14.6002 46.5657 16.1699 44.6355 16.1699ZM44.6355 10.9199C43.6704 10.9199 42.8855 11.7048 42.8855 12.6699C42.8855 13.635 43.6704 14.4199 44.6355 14.4199C45.6006 14.4199 46.3855 13.635 46.3855 12.6699C46.3855 11.7048 45.5997 10.9199 44.6355 10.9199Z" fill="#AD7F62"/>
<path d="M32.3732 47.6821C31.8894 47.6821 31.4982 47.291 31.4982 46.8071C31.4982 43.9118 29.1436 41.5571 26.2482 41.5571C25.7644 41.5571 25.3732 41.166 25.3732 40.6821C25.3732 40.1983 25.7644 39.8071 26.2482 39.8071C30.1079 39.8071 33.2482 42.9475 33.2482 46.8071C33.2482 47.291 32.8571 47.6821 32.3732 47.6821Z" fill="#AD7F62"/>
<path d="M26.2482 41.5572L21.8732 41.5554C21.3894 41.5554 20.9982 41.1634 20.9982 40.6804C20.9982 40.1965 21.3902 39.8054 21.8732 39.8054L26.2482 39.8072C26.7321 39.8072 27.1232 40.1992 27.1232 40.6822C27.1232 41.166 26.7312 41.5572 26.2482 41.5572Z" fill="#AD7F62"/>
<path d="M1.74825 53.8071C0.78312 53.8071 -0.00175476 53.0223 -0.00175476 52.0571C-0.00175476 51.5733 0.38937 51.1821 0.873245 51.1821C1.35712 51.1821 1.74825 51.5733 1.74825 52.0571V52.0589C2.23212 52.0589 2.62325 52.4491 2.62325 52.933C2.62325 53.416 2.23212 53.8071 1.74825 53.8071Z" fill="#AD7F62"/>
<path d="M31.4982 53.8071C31.0144 53.8071 30.6232 53.416 30.6232 52.9321C30.6232 52.4483 31.0144 52.0571 31.4982 52.0571H31.5C31.5 51.5733 31.8902 51.1821 32.3741 51.1821C32.8571 51.1821 33.2482 51.5733 33.2482 52.0571C33.2482 53.0223 32.4634 53.8071 31.4982 53.8071Z" fill="#AD7F62"/>
<path d="M32.3732 52.9321C31.8894 52.9321 31.4982 52.541 31.4982 52.0571V46.8071C31.4982 46.3233 31.8894 45.9321 32.3732 45.9321C32.8571 45.9321 33.2482 46.3233 33.2482 46.8071V52.0571C33.2482 52.541 32.8571 52.9321 32.3732 52.9321Z" fill="#AD7F62"/>
<path d="M0.873245 47.6804C0.38937 47.6804 -0.00175476 47.2893 -0.00175476 46.8054C-0.00175476 42.9458 3.13862 39.8054 6.99825 39.8054C7.48212 39.8054 7.87325 40.1965 7.87325 40.6804C7.87325 41.1643 7.48212 41.5554 6.99825 41.5554C4.10287 41.5554 1.74825 43.91 1.74825 46.8054C1.74825 47.2893 1.35712 47.6804 0.873245 47.6804Z" fill="#AD7F62"/>
<path d="M6.99825 41.5572C6.51525 41.5572 6.12325 41.166 6.12325 40.6822C6.12325 40.1992 6.51437 39.8072 6.99825 39.8072L11.3732 39.8054C11.8562 39.8054 12.2482 40.1965 12.2482 40.6804C12.2482 41.1634 11.8571 41.5554 11.3732 41.5554L6.99825 41.5572Z" fill="#AD7F62"/>
<path d="M0.873245 52.9304C0.38937 52.9304 -0.00175476 52.5393 -0.00175476 52.0554V46.8054C-0.00175476 46.3215 0.38937 45.9304 0.873245 45.9304C1.35712 45.9304 1.74825 46.3215 1.74825 46.8054V52.0554C1.74825 52.5393 1.35712 52.9304 0.873245 52.9304Z" fill="#AD7F62"/>
<path d="M31.4982 53.8071H1.74825C1.26437 53.8071 0.873245 53.416 0.873245 52.9321C0.873245 52.4483 1.26437 52.0571 1.74825 52.0571H31.4982C31.9821 52.0571 32.3732 52.4483 32.3732 52.9321C32.3732 53.416 31.9821 53.8071 31.4982 53.8071Z" fill="#AD7F62"/>
<path d="M11.3732 41.5555C10.8894 41.5555 10.4982 41.1644 10.4982 40.6805V36.7754C10.4982 36.2915 10.8894 35.9004 11.3732 35.9004C11.8571 35.9004 12.2482 36.2915 12.2482 36.7754V40.6805C12.2482 41.1644 11.8571 41.5555 11.3732 41.5555Z" fill="#AD7F62"/>
<path d="M21.8732 41.5538C21.3894 41.5538 20.9982 41.1626 20.9982 40.6788V36.7754C20.9982 36.2915 21.3894 35.9004 21.8732 35.9004C22.3571 35.9004 22.7482 36.2915 22.7482 36.7754V40.6788C22.7482 41.1626 22.3571 41.5538 21.8732 41.5538Z" fill="#AD7F62"/>
<path d="M16.6232 38.9321C9.86824 38.9321 4.37325 33.4371 4.37325 26.6821C4.37325 26.1983 4.76437 25.8071 5.24825 25.8071C5.73212 25.8071 6.12325 26.1983 6.12325 26.6821C6.12325 32.472 10.8334 37.1821 16.6232 37.1821C22.4131 37.1821 27.1232 32.472 27.1232 26.6821C27.1232 26.1983 27.5144 25.8071 27.9982 25.8071C28.4821 25.8071 28.8732 26.1983 28.8732 26.6821C28.8732 33.4371 23.3782 38.9321 16.6232 38.9321Z" fill="#AD7F62"/>
<path d="M5.24825 27.5571C4.76437 27.5571 4.37325 27.166 4.37325 26.6821V18.8071C4.37325 18.3233 4.76437 17.9321 5.24825 17.9321C5.73212 17.9321 6.12325 18.3233 6.12325 18.8071V26.6821C6.12325 27.166 5.73212 27.5571 5.24825 27.5571Z" fill="#AD7F62"/>
<path d="M27.9982 27.5571C27.5144 27.5571 27.1232 27.166 27.1232 26.6821V17.0571C27.1232 16.5733 27.5144 16.1821 27.9982 16.1821C28.4821 16.1821 28.8732 16.5733 28.8732 17.0571V26.6821C28.8732 27.166 28.4821 27.5571 27.9982 27.5571Z" fill="#AD7F62"/>
<path d="M27.9982 17.9323C27.5144 17.9323 27.1232 17.5411 27.1232 17.0573C27.1232 14.6449 25.1606 12.6823 22.7482 12.6823C22.2644 12.6823 21.8732 12.2911 21.8732 11.8073C21.8732 11.3234 22.2644 10.9323 22.7482 10.9323C26.1249 10.9323 28.8732 13.6806 28.8732 17.0573C28.8732 17.5411 28.4821 17.9323 27.9982 17.9323Z" fill="#AD7F62"/>
<path d="M22.7482 12.6823C22.2644 12.6823 21.8732 12.2911 21.8732 11.8073V8.30725C21.8732 7.82338 22.2644 7.43225 22.7482 7.43225C23.2321 7.43225 23.6232 7.82338 23.6232 8.30725V11.8073C23.6232 12.2911 23.2321 12.6823 22.7482 12.6823Z" fill="#AD7F62"/>
<path d="M22.7482 9.18225H15.7482C15.2644 9.18225 14.8732 8.79113 14.8732 8.30725C14.8732 7.82338 15.2644 7.43225 15.7482 7.43225H22.7482C23.2321 7.43225 23.6232 7.82338 23.6232 8.30725C23.6232 8.79113 23.2321 9.18225 22.7482 9.18225Z" fill="#AD7F62"/>
<path d="M5.24649 19.6823C4.76262 19.6823 4.37149 19.2911 4.37149 18.8073C4.37149 12.5352 9.47536 7.43225 15.7482 7.43225C16.2321 7.43225 16.6232 7.82338 16.6232 8.30725C16.6232 8.79113 16.2321 9.18225 15.7482 9.18225C10.4405 9.18225 6.12149 13.5004 6.12149 18.8073C6.12149 19.2911 5.73037 19.6823 5.24649 19.6823Z" fill="#AD7F62"/>
<path d="M27.9982 24.0573C27.7742 24.0573 27.5503 23.9716 27.3796 23.801L24.7546 21.176C24.4125 20.8338 24.4125 20.2808 24.7546 19.9387C25.0968 19.5966 25.6497 19.5966 25.9919 19.9387L28.6169 22.5637C28.959 22.9058 28.959 23.4588 28.6169 23.801C28.4463 23.9716 28.2222 24.0573 27.9982 24.0573Z" fill="#AD7F62"/>
<path d="M16.6232 23.1824C11.7451 23.1824 7.693 21.4332 7.52237 21.3589C7.0805 21.1655 6.87925 20.6492 7.07175 20.2074C7.26425 19.7646 7.78137 19.5642 8.22325 19.7559C8.26175 19.7725 12.124 21.4324 16.6232 21.4324C21.1374 21.4324 24.9847 19.7725 25.0232 19.7559C25.466 19.5616 25.9822 19.7646 26.1747 20.2074C26.369 20.6501 26.1669 21.1664 25.7232 21.3589C25.5535 21.4332 21.4996 23.1824 16.6232 23.1824Z" fill="#AD7F62"/>
<path d="M5.2465 24.0573C5.0225 24.0573 4.7985 23.9716 4.62787 23.801C4.28575 23.4588 4.28575 22.905 4.62787 22.5637L7.25462 19.9387C7.59675 19.5966 8.14975 19.5966 8.49187 19.9387C8.834 20.2808 8.834 20.8347 8.49187 21.176L5.86512 23.801C5.6945 23.9716 5.4705 24.0573 5.2465 24.0573Z" fill="#AD7F62"/>
<path d="M13.9974 43.3072C13.8311 43.3072 13.6614 43.2591 13.5126 43.1602L10.8876 41.4084C10.4851 41.1398 10.3766 40.5964 10.6452 40.1948C10.9139 39.7923 11.4572 39.6838 11.8589 39.9524L14.4839 41.7042C14.8864 41.9728 14.9949 42.5162 14.7262 42.9178C14.5574 43.1707 14.28 43.3072 13.9974 43.3072Z" fill="#AD7F62"/>
<path d="M13.9982 43.3073C13.6325 43.3073 13.2904 43.0763 13.1687 42.7097C13.0147 42.2521 13.2624 41.7551 13.7209 41.602L16.3459 40.7235C16.8035 40.5703 17.3005 40.8162 17.4536 41.2756C17.6076 41.7332 17.36 42.2302 16.9015 42.3833L14.2765 43.2618C14.1837 43.2933 14.091 43.3073 13.9982 43.3073Z" fill="#AD7F62"/>
<path d="M19.2491 43.3072C18.9665 43.3072 18.6891 43.1707 18.5202 42.9178C18.2516 42.5162 18.3601 41.9728 18.7626 41.7042L21.3876 39.9524C21.7884 39.6838 22.3317 39.7923 22.6012 40.1948C22.8699 40.5964 22.7614 41.1398 22.3589 41.4084L19.7339 43.1602C19.5851 43.2591 19.4154 43.3072 19.2491 43.3072Z" fill="#AD7F62"/>
<path d="M19.2482 43.3072C19.1564 43.3072 19.0627 43.2923 18.9709 43.2617L16.3459 42.3832C15.8882 42.23 15.6397 41.7339 15.7937 41.2754C15.9477 40.8169 16.4439 40.571 16.9015 40.7233L19.5265 41.6018C19.9841 41.7549 20.2326 42.251 20.0786 42.7095C19.9561 43.0753 19.614 43.3072 19.2482 43.3072Z" fill="#AD7F62"/>
<path d="M16.6495 46.8071C16.1656 46.8071 15.7701 46.416 15.7701 45.9321C15.7701 45.4483 16.1569 45.0571 16.6399 45.0571H16.6495C17.1325 45.0571 17.5245 45.4483 17.5245 45.9321C17.5245 46.416 17.1325 46.8071 16.6495 46.8071Z" fill="#AD7F62"/>
<path d="M16.6495 50.3071C16.1656 50.3071 15.7701 49.916 15.7701 49.4321C15.7701 48.9483 16.1569 48.5571 16.6399 48.5571H16.6495C17.1325 48.5571 17.5245 48.9483 17.5245 49.4321C17.5245 49.916 17.1325 50.3071 16.6495 50.3071Z" fill="#AD7F62"/>
<path d="M36.7535 25.8055C36.6047 25.8055 36.456 25.7678 36.323 25.6917C36.0482 25.536 35.8785 25.2455 35.8785 24.9305V23.1805H34.1285C33.6446 23.1805 33.2535 22.7893 33.2535 22.3055V3.05896C33.2535 2.57509 33.6446 2.18396 34.1285 2.18396H55.1267C55.6106 2.18396 56.0017 2.57509 56.0017 3.05896V22.3055C56.0017 22.7893 55.6106 23.1805 55.1267 23.1805H41.3691L37.2032 25.6803C37.065 25.7635 36.9101 25.8055 36.7535 25.8055ZM35.0035 21.4305H36.7535C37.2374 21.4305 37.6285 21.8216 37.6285 22.3055V23.3843L40.6761 21.5547C40.8117 21.4725 40.9675 21.4296 41.1267 21.4296H54.2517V3.93396H35.0035V21.4305Z" fill="#AD7F62"/>
<path d="M37.6372 34.5696C35.707 34.5696 34.1372 32.9998 34.1372 31.0696C34.1372 30.5857 34.5284 30.1946 35.0122 30.1946C35.4961 30.1946 35.8872 30.5857 35.8872 31.0696C35.8872 32.0347 36.6721 32.8196 37.6372 32.8196C38.1211 32.8196 38.5122 33.2107 38.5122 33.6946C38.5122 34.1785 38.1202 34.5696 37.6372 34.5696Z" fill="#AD7F62"/>
<path d="M35.014 44.1981C34.5301 44.1981 34.139 43.807 34.139 43.3231V31.0801C34.139 30.5962 34.5301 30.2051 35.014 30.2051C35.4979 30.2051 35.889 30.5962 35.889 31.0801V43.3231C35.889 43.8061 35.497 44.1981 35.014 44.1981Z" fill="#AD7F62"/>
<path d="M49.8837 34.5713C46.5071 34.5713 43.7587 31.8229 43.7587 28.4463C43.7587 27.9624 44.1499 27.5713 44.6337 27.5713C45.1176 27.5713 45.5087 27.9624 45.5087 28.4463C45.5087 30.8587 47.4714 32.8213 49.8837 32.8213C50.3676 32.8213 50.7587 33.2124 50.7587 33.6963C50.7587 34.1802 50.3676 34.5713 49.8837 34.5713Z" fill="#AD7F62"/>
<path d="M51.639 34.5696C51.1551 34.5696 50.764 34.1785 50.764 33.6946C50.764 33.2107 51.1551 32.8196 51.639 32.8196C52.6041 32.8196 53.389 32.0347 53.389 31.0696C53.389 30.5857 53.7801 30.1946 54.264 30.1946C54.7479 30.1946 55.139 30.5857 55.139 31.0696C55.139 32.9998 53.5692 34.5696 51.639 34.5696Z" fill="#AD7F62"/>
<path d="M54.2622 44.1981C53.7784 44.1981 53.3872 43.807 53.3872 43.3231V31.0696C53.3872 30.5857 53.7784 30.1946 54.2622 30.1946C54.7461 30.1946 55.1372 30.5857 55.1372 31.0696V43.3231C55.1372 43.8061 54.7452 44.1981 54.2622 44.1981Z" fill="#AD7F62"/>
<path d="M44.6372 53.8159C44.1534 53.8159 43.7622 53.4248 43.7622 52.9409C43.7622 51.9758 44.5471 51.1909 45.5122 51.1909C45.9961 51.1909 46.3872 51.582 46.3872 52.0659C46.3872 52.5498 45.9961 52.9409 45.5122 52.9409C45.5122 53.4248 45.1202 53.8159 44.6372 53.8159Z" fill="#AD7F62"/>
<path d="M44.6372 53.8161C44.1534 53.8161 43.7622 53.425 43.7622 52.9411C43.7622 52.9393 43.7622 52.9385 43.7622 52.9385C43.2784 52.9385 42.8837 52.5447 42.8837 52.0617C42.8837 51.5778 43.2714 51.1841 43.7552 51.1841C44.7239 51.1841 45.5122 51.9716 45.5122 52.9411C45.5122 53.425 45.1202 53.8161 44.6372 53.8161Z" fill="#AD7F62"/>
<path d="M45.5122 52.948C45.0284 52.948 44.6372 52.5569 44.6372 52.073C44.6372 51.5891 45.0284 51.198 45.5122 51.198C49.8549 51.198 53.3872 47.6656 53.3872 43.323C53.3872 42.8391 53.7784 42.448 54.2622 42.448C54.7461 42.448 55.1372 42.8391 55.1372 43.323C55.1372 48.6299 50.8191 52.948 45.5122 52.948Z" fill="#AD7F62"/>
<path d="M39.3934 34.5713C38.9095 34.5713 38.5184 34.1802 38.5184 33.6963C38.5184 33.2124 38.9095 32.8213 39.3934 32.8213C41.8057 32.8213 43.7684 30.8587 43.7684 28.4463C43.7684 27.9624 44.1595 27.5713 44.6434 27.5713C45.1272 27.5713 45.5184 27.9624 45.5184 28.4463C45.5184 31.8229 42.7709 34.5713 39.3934 34.5713Z" fill="#AD7F62"/>
<path d="M43.764 52.9462C38.458 52.9462 34.1407 48.629 34.1407 43.323C34.1407 42.8391 34.5319 42.448 35.0157 42.448C35.4996 42.448 35.8907 42.8391 35.8907 43.323C35.8907 47.6647 39.4222 51.1962 43.764 51.1962C44.2479 51.1962 44.639 51.5874 44.639 52.0712C44.639 52.5551 44.247 52.9462 43.764 52.9462Z" fill="#AD7F62"/>
<path d="M39.3934 34.5696H37.6364C37.1525 34.5696 36.7614 34.1785 36.7614 33.6946C36.7614 33.2107 37.1525 32.8196 37.6364 32.8196H39.3934C39.8772 32.8196 40.2684 33.2107 40.2684 33.6946C40.2684 34.1785 39.8772 34.5696 39.3934 34.5696Z" fill="#AD7F62"/>
<path d="M51.639 34.5713H49.8837C49.3999 34.5713 49.0087 34.1802 49.0087 33.6963C49.0087 33.2124 49.3999 32.8213 49.8837 32.8213H51.639C52.1229 32.8213 52.514 33.2124 52.514 33.6963C52.514 34.1802 52.122 34.5713 51.639 34.5713Z" fill="#AD7F62"/>
<path d="M44.6276 46.8071C44.1437 46.8071 43.7526 46.416 43.7526 45.9321V37.365C43.7526 36.8811 44.1437 36.49 44.6276 36.49C45.1115 36.49 45.5026 36.8811 45.5026 37.365V45.9321C45.5026 46.416 45.1115 46.8071 44.6276 46.8071Z" fill="#AD7F62"/>
</symbol>

<symbol viewBox="0 0 56 55" fill="none" xmlns="http://www.w3.org/2000/svg" id="icon-judge">
<path d="M11.7704 49.6727V52.4829C11.7704 53.8731 12.9178 55 14.3333 55C15.7488 55 16.8961 53.873 16.8961 52.4829V49.6727H11.7704Z" fill="#AD7F62"/>
<path d="M18.0027 49.6727V52.4829C18.0027 53.8731 19.1501 55 20.5656 55C21.9811 55 23.1284 53.873 23.1284 52.4829V49.6727H18.0027Z" fill="#AD7F62"/>
<path d="M23.8915 6.84707C23.8915 6.20437 23.5163 5.64889 22.9698 5.37689C23.5162 5.10501 23.8915 4.54942 23.8915 3.90672C23.8915 2.82949 22.849 2.02598 21.7667 2.31859C21.8484 1.03598 20.8129 0 19.5531 0C18.6216 0 17.8253 0.56375 17.4954 1.36232C17.1655 0.56375 16.3692 0 15.4377 0C14.1751 0 13.1425 1.03888 13.2239 2.31859C12.1435 2.02641 11.099 2.82756 11.099 3.90672C11.099 4.54942 11.4743 5.1049 12.0208 5.37689C11.4744 5.64878 11.099 6.20437 11.099 6.84707C11.099 7.48978 11.4743 8.04515 12.0208 8.31725C11.4743 8.58913 11.0989 9.14472 11.0989 9.78742C11.0989 10.698 11.8505 11.4361 12.7776 11.4361C13.7048 11.4361 14.4563 10.698 14.4563 9.78742C14.4563 9.75777 14.4534 9.72898 14.4518 9.69977C15.2434 10.4288 16.3074 10.8761 17.4781 10.8761C18.6668 10.8761 19.7453 10.4151 20.5403 9.66614C20.4676 10.6443 21.2566 11.4361 22.2128 11.4361C23.1399 11.4361 23.8914 10.698 23.8914 9.78742C23.8914 9.14472 23.5162 8.58924 22.9697 8.31725C23.5162 8.04525 23.8915 7.48978 23.8915 6.84707Z" fill="#AD7F62"/>
<path d="M48.4508 33.9575H47.6598C47.6296 33.8708 44.668 25.3381 44.6365 25.252C44.486 24.8351 44.051 24.5942 43.6202 24.6669L37.8463 25.6409V20.202C38.8514 19.6736 39.2623 18.457 38.7606 17.4405C38.246 16.3981 36.9684 15.9628 35.9072 16.4679L28.2622 20.1077L28.2473 17.2005C28.2333 14.4771 25.9661 12.2616 23.1933 12.2616H22.6004L18.4136 15.3455L17.4891 12.2616H17.4736L16.5491 15.3455C15.0255 14.2232 13.8497 13.3572 12.3623 12.2616H11.7275C8.95453 12.2616 6.64781 14.4773 6.63403 17.2005V32.6107C6.62802 33.7691 7.54009 34.7131 8.71959 34.7188C8.7232 34.7188 8.72692 34.7188 8.73053 34.7188C9.905 34.7188 10.9126 33.7865 10.9186 32.6317V17.2217V17.2214C10.9198 16.9982 11.131 16.818 11.3584 16.8185C11.5857 16.8192 11.7696 17.0004 11.7696 17.2236V47.9507H23.0823H23.1288C23.1288 20.6216 23.0835 38.1702 23.0823 17.2671C23.0823 17.0329 23.269 16.8398 23.5071 16.8275C23.7452 16.8153 23.9516 16.9883 23.9762 17.2212C23.9762 17.2213 23.9762 17.2214 23.9762 17.2216L24.008 23.4577C24.016 24.9987 25.6628 26.0072 27.0752 25.3348L36.016 21.0782V25.9496C36.0159 25.9496 29.9428 26.9742 29.9426 26.9742C29.5859 27.0344 29.3216 27.2769 29.2192 27.5764L26.2022 36.2663H25.4112C24.9058 36.2663 24.4961 36.6687 24.4961 37.1651C24.4961 37.5982 24.8117 38.0639 25.5014 38.0639C25.9269 40.1697 27.818 41.7572 30.087 41.7572C32.3561 41.7572 34.2471 40.1697 34.6725 38.0639C35.3428 38.0639 35.6779 37.6164 35.6779 37.1651C35.6779 36.6687 35.2682 36.2663 34.7628 36.2663H33.9719L31.2996 28.5691L42.4116 26.6944L39.8902 33.9571H39.0992C38.5937 33.9571 38.184 34.3595 38.184 34.8559C38.184 35.2889 38.4996 35.7547 39.1894 35.7547C39.615 37.8605 41.506 39.4481 43.7749 39.4481C46.044 39.4481 47.935 37.8605 48.3605 35.7547C49.0308 35.7551 49.366 35.3075 49.366 34.8563C49.3661 34.36 48.9563 33.9575 48.4508 33.9575ZM32.0381 36.2666H28.1362L30.0871 30.6471L32.0381 36.2666ZM41.824 33.9575L43.7751 28.3379L45.726 33.9575H41.824Z" fill="#AD7F62"/>
</symbol>

<symbol viewBox="0 0 56 56" fill="none" xmlns="http://www.w3.org/2000/svg" id="icon-balance">
<path d="M41.6639 56.0001H14.3361C11.8193 56.0001 9.77179 53.9526 9.77179 51.4357C9.77179 48.9189 11.8195 46.8713 14.3361 46.8713H16.9964C17.6986 43.8204 20.4367 41.5385 23.6977 41.5385H32.3023C33.1544 41.5385 33.8454 42.2294 33.8454 43.0817C33.8454 43.9339 33.1544 44.6249 32.3023 44.6249H23.6977C21.6081 44.6249 19.9081 46.3249 19.9081 48.4145C19.9081 49.2668 19.2171 49.9577 18.3649 49.9577H14.3361C13.5212 49.9577 12.8582 50.6206 12.8582 51.4357C12.8582 52.2507 13.5212 52.9136 14.3361 52.9136H41.664C42.479 52.9136 43.1419 52.2507 43.1419 51.4357C43.1419 50.6208 42.479 49.9577 41.664 49.9577H37.6352C36.783 49.9577 36.092 49.2667 36.092 48.4145C36.092 47.5622 36.783 46.8713 37.6352 46.8713H41.664C44.1808 46.8713 46.2283 48.919 46.2283 51.4357C46.2282 53.9526 44.1807 56.0001 41.6639 56.0001Z" fill="#AD7F62"/>
<path d="M28 44.4708C27.1479 44.4708 26.4568 43.7799 26.4568 42.9276V5.19564C26.4568 4.34328 27.1479 3.65247 28 3.65247C28.8522 3.65247 29.5432 4.34339 29.5432 5.19564V42.9276C29.5432 43.7799 28.8524 44.4708 28 44.4708Z" fill="#AD7F62"/>
<path d="M44.6919 10.9054H11.3081C10.4559 10.9054 9.76489 10.2145 9.76489 9.36226C9.76489 8.51001 10.4559 7.81909 11.3081 7.81909H44.6921C45.5442 7.81909 46.2352 8.51001 46.2352 9.36226C46.2352 10.2145 45.5443 10.9054 44.6919 10.9054Z" fill="#AD7F62"/>
<path d="M4.29799 31.189V31.4514C4.29799 35.3229 7.4365 38.4613 11.3079 38.4613C15.1795 38.4613 18.3179 35.3228 18.3179 31.4514V31.189H4.29799Z" fill="#CEE8FA"/>
<path d="M11.3081 40.0045C6.59171 40.0045 2.75472 36.1676 2.75472 31.4512V31.1888C2.75472 30.3364 3.44575 29.6456 4.29789 29.6456H18.3181C19.1703 29.6456 19.8613 30.3365 19.8613 31.1888V31.4512C19.8613 36.1677 16.0243 40.0045 11.3081 40.0045ZM5.99266 32.7322C6.57071 35.1307 8.7348 36.9181 11.3081 36.9181C13.8813 36.9181 16.0454 35.1306 16.6235 32.7322H5.99266Z" fill="#AD7F62"/>
<path d="M4.62515 27.1098C4.42905 27.1098 4.22976 27.0723 4.03737 26.9929C3.24955 26.668 2.87406 25.7659 3.1989 24.978L9.88139 8.77383C10.1196 8.19611 10.6831 7.81888 11.3081 7.81888C11.9333 7.81888 12.4963 8.19589 12.7348 8.77383L19.4169 24.9778C19.7418 25.7658 19.3665 26.6679 18.5785 26.9928C17.7901 27.3177 16.8884 26.9423 16.5633 26.1545L11.308 13.41L6.0525 26.1545C5.80684 26.7498 5.23153 27.1098 4.62515 27.1098Z" fill="#AD7F62"/>
<path d="M37.682 31.189V31.4514C37.682 35.3229 40.8205 38.4613 44.6919 38.4613C48.5635 38.4613 51.7021 35.3228 51.7021 31.4514V31.189H37.682Z" fill="#CEE8FA"/>
<path d="M44.6919 40.0045C39.9756 40.0045 36.1386 36.1676 36.1386 31.4512V31.1888C36.1386 30.3364 36.8296 29.6456 37.6818 29.6456H51.702C52.5541 29.6456 53.2452 30.3365 53.2452 31.1888V31.4512C53.2453 36.1677 49.4083 40.0045 44.6919 40.0045ZM39.3766 32.7322C39.9547 35.1307 42.1188 36.9181 44.692 36.9181C47.2653 36.9181 49.4294 35.1306 50.0074 32.7322H39.3766Z" fill="#AD7F62"/>
<path d="M51.375 27.1098C50.7684 27.1098 50.1934 26.7501 49.9476 26.1545L44.6919 13.41L39.4365 26.1545C39.1115 26.9424 38.2091 27.3178 37.4213 26.9928C36.6335 26.6679 36.258 25.7658 36.5829 24.9778L43.265 8.77383C43.5035 8.196 44.0665 7.81888 44.6917 7.81888C45.3167 7.81888 45.88 8.19589 46.1184 8.77383L52.8008 24.9778C53.1256 25.7658 52.7504 26.6679 51.9623 26.9928C51.7704 27.072 51.571 27.1098 51.375 27.1098Z" fill="#AD7F62"/>
<path d="M27.9999 8.8478C30.017 8.8478 31.6521 7.21264 31.6521 5.19555C31.6521 3.17847 30.017 1.5433 27.9999 1.5433C25.9828 1.5433 24.3476 3.17847 24.3476 5.19555C24.3476 7.21264 25.9828 8.8478 27.9999 8.8478Z" fill="#CEE8FA"/>
<path d="M28 10.3908C25.1353 10.3908 22.8045 8.06017 22.8045 5.19531C22.8045 2.33045 25.1353 0 28 0C30.8648 0 33.1955 2.33067 33.1955 5.19553C33.1955 8.06039 30.865 10.3908 28 10.3908ZM28 3.08634C26.837 3.08634 25.8909 4.03244 25.8909 5.19542C25.8909 6.35841 26.837 7.3045 28 7.3045C29.163 7.3045 30.1091 6.35841 30.1091 5.19542C30.1091 4.03255 29.1631 3.08634 28 3.08634Z" fill="#AD7F62"/>
</symbol>

</defs>
</svg>



